<svg xmlns="http://www.w3.org/2000/svg" version="1.1" xmlns:xlink="http://www.w3.org/1999/xlink" xmlns:svgjs="http://svgjs.com/svgjs" width="1440" height="250" preserveAspectRatio="none" viewBox="0 0 1440 250">
    <g mask="url(&quot;#SvgjsMask1015&quot;)" fill="none">
        <rect width="1440" height="250" x="0" y="0" fill="rgba(65, 0, 0, 1)"></rect>
        <path d="M2 250L252 0L375 0L125 250z" fill="url(#SvgjsLinearGradient1016)"></path>
        <path d="M277.6 250L527.6 0L710.6 0L460.6 250z" fill="url(#SvgjsLinearGradient1016)"></path>
        <path d="M506.20000000000005 250L756.2 0L1039.7 0L789.7 250z" fill="url(#SvgjsLinearGradient1016)"></path>
        <path d="M719.8000000000001 250L969.8000000000001 0L1040.3000000000002 0L790.3000000000001 250z" fill="url(#SvgjsLinearGradient1016)"></path>
        <path d="M1432 250L1182 0L988.5 0L1238.5 250z" fill="url(#SvgjsLinearGradient1017)"></path>
        <path d="M1165.4 250L915.4000000000001 0L670.9000000000001 0L920.9000000000001 250z" fill="url(#SvgjsLinearGradient1017)"></path>
        <path d="M917.8 250L667.8 0L579.3 0L829.3 250z" fill="url(#SvgjsLinearGradient1017)"></path>
        <path d="M722.1999999999999 250L472.19999999999993 0L326.69999999999993 0L576.6999999999999 250z" fill="url(#SvgjsLinearGradient1017)"></path>
        <path d="M1210.8178801578583 250L1440 20.81788015785827L1440 250z" fill="url(#SvgjsLinearGradient1016)"></path>
        <path d="M0 250L229.18211984214173 250L 0 20.81788015785827z" fill="url(#SvgjsLinearGradient1017)"></path>
    </g>
    <defs>
        <mask id="SvgjsMask1015"><rect width="1440" height="250" fill="#ffffff"></rect></mask>
        <linearGradient x1="0%" y1="100%" x2="100%" y2="0%" id="SvgjsLinearGradient1016">
            <stop stop-color="rgba(195, 25, 25, 0.2)" offset="0"></stop>
            <stop stop-opacity="0" stop-color="rgba(185, 15, 15, 0.2)" offset="0.66"></stop>
        </linearGradient>
        <linearGradient x1="100%" y1="100%" x2="0%" y2="0%" id="SvgjsLinearGradient1017">
            <stop stop-color="rgba(195, 25, 25, 0.2)" offset="0"></stop>
            <stop stop-opacity="0" stop-color="rgba(185, 15, 15, 0.2)" offset="0.66"></stop>
        </linearGradient>
    </defs>
</svg>